<mxfile host="app.diagrams.net" agent="Mozilla/5.0 (Windows NT 10.0; Win64; x64) AppleWebKit/537.36 (KHTML, like Gecko) Chrome/131.0.0.0 Safari/537.36" version="25.0.3">
  <diagram name="Trang-1" id="Zu387g5JVhdvufXCboRP">
    <mxGraphModel dx="2415" dy="892" grid="1" gridSize="10" guides="1" tooltips="1" connect="1" arrows="1" fold="1" page="1" pageScale="1" pageWidth="827" pageHeight="1169" math="0" shadow="0">
      <root>
        <mxCell id="0" />
        <mxCell id="1" parent="0" />
        <mxCell id="U15AnV_wHx720TJoR4oY-3" value="" style="edgeStyle=orthogonalEdgeStyle;rounded=0;orthogonalLoop=1;jettySize=auto;html=1;" edge="1" parent="1" source="U15AnV_wHx720TJoR4oY-1" target="U15AnV_wHx720TJoR4oY-2">
          <mxGeometry relative="1" as="geometry" />
        </mxCell>
        <mxCell id="U15AnV_wHx720TJoR4oY-1" value="start" style="ellipse;whiteSpace=wrap;html=1;fontStyle=1;fontSize=19;" vertex="1" parent="1">
          <mxGeometry x="340" y="50" width="120" height="80" as="geometry" />
        </mxCell>
        <mxCell id="U15AnV_wHx720TJoR4oY-5" value="" style="edgeStyle=orthogonalEdgeStyle;rounded=0;orthogonalLoop=1;jettySize=auto;html=1;" edge="1" parent="1" source="U15AnV_wHx720TJoR4oY-2" target="U15AnV_wHx720TJoR4oY-4">
          <mxGeometry relative="1" as="geometry" />
        </mxCell>
        <mxCell id="U15AnV_wHx720TJoR4oY-2" value="&#xa;Input number n&#xa;&#xa;" style="shape=parallelogram;perimeter=parallelogramPerimeter;whiteSpace=wrap;html=1;fixedSize=1;fontStyle=1;fontSize=13;" vertex="1" parent="1">
          <mxGeometry x="335" y="200" width="130" height="60" as="geometry" />
        </mxCell>
        <mxCell id="U15AnV_wHx720TJoR4oY-7" value="" style="edgeStyle=orthogonalEdgeStyle;rounded=0;orthogonalLoop=1;jettySize=auto;html=1;" edge="1" parent="1" source="U15AnV_wHx720TJoR4oY-4" target="U15AnV_wHx720TJoR4oY-6">
          <mxGeometry relative="1" as="geometry" />
        </mxCell>
        <mxCell id="U15AnV_wHx720TJoR4oY-9" value="" style="edgeStyle=orthogonalEdgeStyle;rounded=0;orthogonalLoop=1;jettySize=auto;html=1;" edge="1" parent="1" source="U15AnV_wHx720TJoR4oY-4">
          <mxGeometry relative="1" as="geometry">
            <mxPoint x="610.0000000000005" y="460" as="targetPoint" />
          </mxGeometry>
        </mxCell>
        <mxCell id="U15AnV_wHx720TJoR4oY-4" value="&#xa; &lt;strong&gt;Is n &amp;lt;= 0?&lt;/strong&gt;&#xa;&#xa;" style="rhombus;whiteSpace=wrap;html=1;fontSize=16;" vertex="1" parent="1">
          <mxGeometry x="320" y="330" width="160" height="70" as="geometry" />
        </mxCell>
        <mxCell id="U15AnV_wHx720TJoR4oY-15" value="" style="edgeStyle=orthogonalEdgeStyle;rounded=0;orthogonalLoop=1;jettySize=auto;html=1;" edge="1" parent="1" source="U15AnV_wHx720TJoR4oY-6" target="U15AnV_wHx720TJoR4oY-14">
          <mxGeometry relative="1" as="geometry" />
        </mxCell>
        <mxCell id="U15AnV_wHx720TJoR4oY-6" value="&#xa; &lt;strong&gt;For i = 1 to n&lt;/strong&gt;&#xa;&#xa;" style="whiteSpace=wrap;html=1;fontSize=16;" vertex="1" parent="1">
          <mxGeometry x="90" y="490" width="120" height="60" as="geometry" />
        </mxCell>
        <mxCell id="U15AnV_wHx720TJoR4oY-10" value="No&lt;span style=&quot;font-weight: normal;&quot;&gt;(n&amp;gt;0)&lt;/span&gt;" style="text;html=1;align=center;verticalAlign=middle;whiteSpace=wrap;rounded=0;fontStyle=1;fontSize=14;" vertex="1" parent="1">
          <mxGeometry x="190" y="330" width="60" height="30" as="geometry" />
        </mxCell>
        <mxCell id="U15AnV_wHx720TJoR4oY-11" value="Yes&lt;span style=&quot;font-weight: normal;&quot;&gt;(n&amp;lt;=0)&lt;/span&gt;" style="text;html=1;align=center;verticalAlign=middle;whiteSpace=wrap;rounded=0;fontStyle=1;fontSize=14;" vertex="1" parent="1">
          <mxGeometry x="510" y="330" width="60" height="30" as="geometry" />
        </mxCell>
        <mxCell id="U15AnV_wHx720TJoR4oY-17" value="" style="edgeStyle=orthogonalEdgeStyle;rounded=0;orthogonalLoop=1;jettySize=auto;html=1;" edge="1" parent="1" source="U15AnV_wHx720TJoR4oY-14" target="U15AnV_wHx720TJoR4oY-16">
          <mxGeometry relative="1" as="geometry" />
        </mxCell>
        <mxCell id="U15AnV_wHx720TJoR4oY-19" value="" style="edgeStyle=orthogonalEdgeStyle;rounded=0;orthogonalLoop=1;jettySize=auto;html=1;" edge="1" parent="1" source="U15AnV_wHx720TJoR4oY-14" target="U15AnV_wHx720TJoR4oY-18">
          <mxGeometry relative="1" as="geometry" />
        </mxCell>
        <mxCell id="U15AnV_wHx720TJoR4oY-14" value="&lt;b&gt;Is n%1==0?&lt;/b&gt;" style="rhombus;whiteSpace=wrap;html=1;fontSize=16;" vertex="1" parent="1">
          <mxGeometry x="80" y="620" width="140" height="50" as="geometry" />
        </mxCell>
        <mxCell id="U15AnV_wHx720TJoR4oY-16" value="I" style="whiteSpace=wrap;html=1;fontSize=16;" vertex="1" parent="1">
          <mxGeometry x="-110" y="745" width="120" height="60" as="geometry" />
        </mxCell>
        <mxCell id="U15AnV_wHx720TJoR4oY-18" value="I++" style="whiteSpace=wrap;html=1;fontSize=16;" vertex="1" parent="1">
          <mxGeometry x="280" y="745" width="120" height="60" as="geometry" />
        </mxCell>
        <mxCell id="U15AnV_wHx720TJoR4oY-20" value="Yes" style="text;html=1;align=center;verticalAlign=middle;whiteSpace=wrap;rounded=0;fontStyle=1" vertex="1" parent="1">
          <mxGeometry x="-50" y="600" width="60" height="30" as="geometry" />
        </mxCell>
        <mxCell id="U15AnV_wHx720TJoR4oY-21" value="&lt;b&gt;No&lt;/b&gt;" style="text;html=1;align=center;verticalAlign=middle;whiteSpace=wrap;rounded=0;" vertex="1" parent="1">
          <mxGeometry x="240" y="600" width="60" height="30" as="geometry" />
        </mxCell>
        <mxCell id="U15AnV_wHx720TJoR4oY-22" value="" style="endArrow=classic;html=1;rounded=0;exitX=1;exitY=0.75;exitDx=0;exitDy=0;entryX=0;entryY=0.75;entryDx=0;entryDy=0;" edge="1" parent="1" source="U15AnV_wHx720TJoR4oY-16" target="U15AnV_wHx720TJoR4oY-18">
          <mxGeometry width="50" height="50" relative="1" as="geometry">
            <mxPoint x="220" y="660" as="sourcePoint" />
            <mxPoint x="270" y="790" as="targetPoint" />
          </mxGeometry>
        </mxCell>
        <mxCell id="U15AnV_wHx720TJoR4oY-24" value="" style="endArrow=classic;html=1;rounded=0;exitX=0.919;exitY=0.061;exitDx=0;exitDy=0;exitPerimeter=0;" edge="1" parent="1" source="U15AnV_wHx720TJoR4oY-18" target="U15AnV_wHx720TJoR4oY-4">
          <mxGeometry width="50" height="50" relative="1" as="geometry">
            <mxPoint x="390" y="740" as="sourcePoint" />
            <mxPoint x="450" y="730" as="targetPoint" />
          </mxGeometry>
        </mxCell>
        <mxCell id="U15AnV_wHx720TJoR4oY-25" value="End" style="ellipse;whiteSpace=wrap;html=1;fontStyle=1;fontSize=20;" vertex="1" parent="1">
          <mxGeometry x="550" y="460" width="120" height="80" as="geometry" />
        </mxCell>
      </root>
    </mxGraphModel>
  </diagram>
</mxfile>
